<svg xmlns="http://www.w3.org/2000/svg" viewBox="0 0 512 512">
  <!-- Background -->
  <rect width="512" height="512" rx="100" fill="#0a0a0a"/>
  <!-- Trophy cup body -->
  <path d="M176 80 h160 v140 c0 66-44 110-80 124 -36-14-80-58-80-124 Z" fill="#e8ff3c"/>
  <!-- Trophy handles -->
  <path d="M176 100 h-50 c0 0-30 0-30 50 s30 50 60 50 h20" fill="none" stroke="#e8ff3c" stroke-width="18" stroke-linecap="round"/>
  <path d="M336 100 h50 c0 0 30 0 30 50 s-30 50-60 50 h-20" fill="none" stroke="#e8ff3c" stroke-width="18" stroke-linecap="round"/>
  <!-- Stem -->
  <rect x="228" y="344" width="56" height="60" rx="8" fill="#e8ff3c"/>
  <!-- Base -->
  <rect x="172" y="400" width="168" height="32" rx="12" fill="#e8ff3c"/>
  <!-- Shine on cup -->
  <path d="M210 110 q10-10 30-8" fill="none" stroke="rgba(255,255,255,0.3)" stroke-width="10" stroke-linecap="round"/>
</svg>
